<svg width="20" height="16" viewBox="0 0 20 16" fill="none" xmlns="http://www.w3.org/2000/svg">
<path d="M14.1626 1.33337H5.82923C2.63757 1.33337 1.7459 2.10004 1.6709 5.08337C3.27923 5.08337 4.57923 6.39171 4.57923 8.00004C4.57923 9.60837 3.27923 10.9084 1.6709 10.9167C1.7459 13.9 2.63757 14.6667 5.82923 14.6667H14.1626C17.4959 14.6667 18.3292 13.8334 18.3292 10.5V5.50004C18.3292 2.16671 17.4959 1.33337 14.1626 1.33337Z" stroke="#24653C" stroke-width="1.5" stroke-linecap="round" stroke-linejoin="round"/>
<path d="M12.521 5.77505L13.0377 6.81672C13.0877 6.91672 13.1877 6.99172 13.296 7.00838L14.446 7.17505C14.7293 7.21672 14.846 7.56672 14.6377 7.76672L13.8043 8.57505C13.721 8.65005 13.6877 8.76672 13.7043 8.88338L13.9043 10.025C13.9543 10.3084 13.6543 10.525 13.4043 10.3917L12.3793 9.85005C12.2793 9.80005 12.1543 9.80005 12.0543 9.85005L11.0293 10.3917C10.771 10.525 10.4793 10.3084 10.5293 10.025L10.7293 8.88338C10.746 8.76672 10.7127 8.65838 10.6293 8.57505L9.80434 7.76672C9.59601 7.56672 9.71268 7.21672 9.99601 7.17505L11.146 7.00838C11.2627 6.99172 11.3543 6.92505 11.4043 6.81672L11.9127 5.77505C12.0293 5.51672 12.396 5.51672 12.521 5.77505Z" stroke="#24653C" stroke-width="1.5" stroke-linecap="round" stroke-linejoin="round"/>
</svg>
