<svg width="375" height="207" viewBox="0 0 375 207" fill="none" xmlns="http://www.w3.org/2000/svg">
<g filter="url(#filter0_d_0_1)">
<path fill-rule="evenodd" clip-rule="evenodd" d="M199.959 22.9997C200.004 22.4493 200.448 22 201 22H347.927C348.968 22 349.556 23.7754 348.954 24.6254C347.964 26.0234 347.383 27.7307 347.383 29.5739C347.383 31.982 348.375 34.1582 349.974 35.7156C350.475 36.2039 350.475 37.0656 349.974 37.5539C348.375 39.1113 347.383 41.2876 347.383 43.6957C347.383 46.1037 348.375 48.28 349.974 49.8374C350.475 50.3257 350.475 51.1874 349.974 51.6757C348.375 53.2331 347.383 55.4093 347.383 57.8174C347.383 60.2255 348.375 62.4017 349.974 63.9591C350.475 64.4474 350.475 65.3091 349.974 65.7974C348.375 67.3548 347.383 69.531 347.383 71.9391C347.383 74.3472 348.375 76.5234 349.974 78.0808C350.475 78.5691 350.475 79.4309 349.974 79.9192C348.375 81.4766 347.383 83.6528 347.383 86.0609C347.383 88.469 348.375 90.6452 349.974 92.2026C350.475 92.6909 350.475 93.5526 349.974 94.0409C348.375 95.5983 347.383 97.7745 347.383 100.183C347.383 102.591 348.375 104.767 349.974 106.324C350.475 106.813 350.475 107.674 349.974 108.163C348.375 109.72 347.383 111.896 347.383 114.304C347.383 116.712 348.375 118.889 349.974 120.446C350.475 120.934 350.475 121.796 349.974 122.284C348.375 123.842 347.383 126.018 347.383 128.426C347.383 132.829 350.702 136.458 354.975 136.944C354.989 136.946 355 136.958 355 136.972C355 136.988 354.988 137 354.972 137H201C200.448 137 200.004 136.551 199.959 136C199.451 129.841 194.291 125 188 125C181.709 125 176.549 129.841 176.041 136C175.996 136.551 175.552 137 175 137H20.125C20.056 137 20 136.944 20 136.875C20 136.817 20.0403 136.766 20.0967 136.753C23.8404 135.833 26.6174 132.454 26.6174 128.426C26.6174 126.018 25.6246 123.842 24.0261 122.284C23.5249 121.796 23.5249 120.934 24.0261 120.446C25.6246 118.889 26.6174 116.712 26.6174 114.304C26.6174 111.896 25.6246 109.72 24.0261 108.163C23.5249 107.674 23.5249 106.813 24.0261 106.324C25.6246 104.767 26.6174 102.591 26.6174 100.183C26.6174 97.7745 25.6246 95.5983 24.0261 94.0409C23.5249 93.5526 23.5249 92.6909 24.0261 92.2026C25.6246 90.6452 26.6174 88.469 26.6174 86.0609C26.6174 83.6528 25.6246 81.4766 24.0261 79.9192C23.5249 79.4309 23.5249 78.5691 24.0261 78.0808C25.6246 76.5234 26.6174 74.3472 26.6174 71.9391C26.6174 69.531 25.6246 67.3548 24.0261 65.7974C23.5249 65.3091 23.5249 64.4474 24.0261 63.9591C25.6246 62.4017 26.6174 60.2255 26.6174 57.8174C26.6174 55.4093 25.6246 53.2331 24.0261 51.6757C23.5249 51.1874 23.5249 50.3257 24.0261 49.8374C25.6246 48.28 26.6174 46.1037 26.6174 43.6957C26.6174 41.2876 25.6246 39.1113 24.0261 37.5539C23.5249 37.0656 23.5249 36.2039 24.0261 35.7156C25.6246 34.1582 26.6174 31.982 26.6174 29.5739C26.6174 27.7307 26.0358 26.0234 25.0461 24.6254C24.4443 23.7754 25.0319 22 26.0734 22H175C175.552 22 175.996 22.4493 176.041 22.9997C176.549 29.1594 181.709 34 188 34C194.291 34 199.451 29.1594 199.959 22.9997Z" fill="white"/>
</g>
<line x1="188.5" y1="42" x2="188.5" y2="116" stroke="#DBE3DB" stroke-dasharray="4 4"/>
<defs>
<filter id="filter0_d_0_1" x="-26" y="0" width="427" height="207" filterUnits="userSpaceOnUse" color-interpolation-filters="sRGB">
<feFlood flood-opacity="0" result="BackgroundImageFix"/>
<feColorMatrix in="SourceAlpha" type="matrix" values="0 0 0 0 0 0 0 0 0 0 0 0 0 0 0 0 0 0 127 0" result="hardAlpha"/>
<feOffset dy="24"/>
<feGaussianBlur stdDeviation="23"/>
<feComposite in2="hardAlpha" operator="out"/>
<feColorMatrix type="matrix" values="0 0 0 0 0.0414955 0 0 0 0 0.354834 0 0 0 0 0.067607 0 0 0 0.06 0"/>
<feBlend mode="normal" in2="BackgroundImageFix" result="effect1_dropShadow_0_1"/>
<feBlend mode="normal" in="SourceGraphic" in2="effect1_dropShadow_0_1" result="shape"/>
</filter>
</defs>
</svg>
